<svg class="hidden">
  <symbol fill="none" xmlns="http://www.w3.org/2000/svg" viewBox="0 0 48 48" id="carousel">
    <path d="M44 0H12C10.9391 0 9.92172 0.421427 9.17157 1.17157C8.42143 1.92172 8 2.93913 8 4V8H4C2.93913 8 1.92172 8.42143 1.17157 9.17157C0.421427 9.92172 0 10.9391 0 12V44C0 45.0609 0.421427 46.0783 1.17157 46.8284C1.92172 47.5786 2.93913 48 4 48H36C37.0609 48 38.0783 47.5786 38.8284 46.8284C39.5786 46.0783 40 45.0609 40 44V40H44C45.0609 40 46.0783 39.5786 46.8284 38.8284C47.5786 38.0783 48 37.0609 48 36V4C48 2.93913 47.5786 1.92172 46.8284 1.17157C46.0783 0.421427 45.0609 0 44 0ZM12 4H44V21.345L39.825 17.17C39.0749 16.4204 38.0579 15.9994 36.9975 15.9994C35.9371 15.9994 34.9201 16.4204 34.17 17.17L15.3425 36H12V4ZM36 44H4V12H8V36C8 37.0609 8.42143 38.0783 9.17157 38.8284C9.92172 39.5786 10.9391 40 12 40H36V44ZM18 14C18 13.2089 18.2346 12.4355 18.6741 11.7777C19.1136 11.1199 19.7384 10.6072 20.4693 10.3045C21.2002 10.0017 22.0044 9.92252 22.7804 10.0769C23.5563 10.2312 24.269 10.6122 24.8284 11.1716C25.3878 11.731 25.7688 12.4437 25.9231 13.2196C26.0775 13.9956 25.9983 14.7998 25.6955 15.5307C25.3928 16.2616 24.8801 16.8864 24.2223 17.3259C23.5645 17.7654 22.7911 18 22 18C20.9391 18 19.9217 17.5786 19.1716 16.8284C18.4214 16.0783 18 15.0609 18 14Z" fill="#242128"></path>
  </symbol>
  <symbol fill="none" xmlns="http://www.w3.org/2000/svg" viewBox="0 0 22 22" id="cross">
    <path d="M11 8.39562L18.8135 0.582085L21.418 3.1866L13.6045 11.0001L21.418 18.8137L18.8135 21.4182L11 13.6046L3.18647 21.4182L0.58196 18.8137L8.39549 11.0001L0.581959 3.1866L3.18647 0.582085L11 8.39562Z" fill="#242128"></path>
  </symbol>
  <symbol fill="red" xmlns="http://www.w3.org/2000/svg" viewBox="0 0 54 54" id="live">
    <path d="M27.508 48.3277C27.8582 48.3194 28.2066 48.3803 28.5333 48.5067C28.86 48.6331 29.1586 48.8226 29.412 49.0644C29.6654 49.3062 29.8688 49.5956 30.0104 49.916C30.152 50.2363 30.2291 50.5815 30.2374 50.9317C30.2456 51.2819 30.1848 51.6303 30.0584 51.9569C29.9319 52.2836 29.7424 52.5822 29.5006 52.8356C29.2588 53.0891 28.9695 53.2924 28.6491 53.434C28.3287 53.5757 27.9836 53.6528 27.6334 53.661L26.9987 53.6663L26.364 53.6583C26.0138 53.6501 25.6687 53.573 25.3483 53.4314C25.0279 53.2898 24.7386 53.0864 24.4968 52.833C24.255 52.5795 24.0654 52.281 23.939 51.9543C23.8126 51.6276 23.7518 51.2792 23.76 50.929C23.7683 50.5788 23.8454 50.2337 23.987 49.9133C24.1286 49.5929 24.3319 49.3035 24.5854 49.0617C24.8388 48.8199 25.1374 48.6304 25.4641 48.504C25.7908 48.3776 26.1392 48.3168 26.4894 48.325L26.9987 48.333L27.508 48.3277ZM41.7667 46.1063C41.9494 46.4052 42.0714 46.7371 42.1258 47.0832C42.1802 47.4292 42.1659 47.7826 42.0836 48.1231C42.0014 48.4636 41.8529 48.7846 41.6466 49.0677C41.4404 49.3508 41.1803 49.5904 40.8814 49.773C40.5202 49.9933 40.1539 50.2049 39.7827 50.4077C39.4754 50.5758 39.138 50.6817 38.7898 50.7194C38.4416 50.7571 38.0893 50.7258 37.7532 50.6274C37.0743 50.4286 36.5022 49.9683 36.1627 49.3477C35.8232 48.7271 35.7442 47.997 35.943 47.3181C36.1418 46.6393 36.6021 46.0672 37.2227 45.7277C37.5201 45.566 37.8135 45.397 38.1027 45.221C38.7061 44.8529 39.4309 44.7393 40.1179 44.9053C40.805 45.0714 41.398 45.5033 41.7667 46.1063ZM15.8974 45.221C16.1854 45.397 16.4787 45.5677 16.7774 45.7277C17.398 46.0675 17.8582 46.6399 18.0567 47.3191C18.2552 47.9982 18.1759 48.7284 17.836 49.349C17.4962 49.9696 16.9238 50.4298 16.2446 50.6283C15.5655 50.8269 14.8353 50.7475 14.2147 50.4077C13.8434 50.205 13.4771 49.9934 13.116 49.773C12.5124 49.4042 12.08 48.8107 11.914 48.123C11.7479 47.4354 11.8619 46.71 12.2307 46.1063C12.5995 45.5027 13.193 45.0703 13.8807 44.9043C14.5683 44.7383 15.2937 44.8522 15.8974 45.221ZM26.9987 10.9997C31.2422 10.9997 35.3118 12.6854 38.3124 15.686C41.313 18.6865 42.9987 22.7562 42.9987 26.9997C42.9987 31.2431 41.313 35.3128 38.3124 38.3134C35.3118 41.314 31.2422 42.9997 26.9987 42.9997C22.7552 42.9997 18.6856 41.314 15.685 38.3134C12.6844 35.3128 10.9987 31.2431 10.9987 26.9997C10.9987 22.7562 12.6844 18.6865 15.685 15.686C18.6856 12.6854 22.7552 10.9997 26.9987 10.9997ZM49.3454 36.165C49.966 36.5042 50.4264 37.0759 50.6254 37.7545C50.8245 38.4332 50.7458 39.1631 50.4067 39.7837C50.204 40.157 49.9907 40.5223 49.772 40.8823C49.5894 41.1812 49.3497 41.4412 49.0666 41.6475C48.7835 41.8537 48.4625 42.0022 48.1221 42.0844C47.4344 42.2504 46.709 42.1365 46.1054 41.7677C45.5017 41.3988 45.0693 40.8053 44.9033 40.1177C44.7373 39.4301 44.8512 38.7046 45.22 38.101C45.396 37.813 45.5667 37.5197 45.7267 37.221C45.8951 36.9138 46.1223 36.6428 46.3955 36.4235C46.6686 36.2042 46.9823 36.0408 47.3186 35.9427C47.6549 35.8447 48.0072 35.8138 48.3554 35.852C48.7036 35.8901 49.0409 35.9965 49.348 36.165H49.3454ZM8.2707 37.2237C8.4324 37.5211 8.60134 37.8145 8.77736 38.1037C8.96392 38.4026 9.08938 38.7356 9.14647 39.0834C9.20356 39.4311 9.19116 39.7867 9.10999 40.1296C9.02882 40.4726 8.88048 40.796 8.67356 41.0812C8.46663 41.3665 8.20522 41.6079 7.90443 41.7915C7.60364 41.9751 7.26945 42.0973 6.92116 42.151C6.57287 42.2046 6.2174 42.1887 5.87529 42.1042C5.53319 42.0196 5.21123 41.8681 4.92803 41.6584C4.64483 41.4487 4.40601 41.1849 4.22536 40.8823C4.0051 40.5212 3.79349 40.1549 3.5907 39.7837C3.25122 39.1631 3.17218 38.433 3.37097 37.7541C3.56976 37.0753 4.03009 36.5032 4.6507 36.1637C5.2713 35.8242 6.00135 35.7452 6.68023 35.9439C7.35911 36.1427 7.93122 36.6031 8.2707 37.2237ZM26.9987 16.333C24.1697 16.333 21.4566 17.4568 19.4562 19.4572C17.4558 21.4576 16.332 24.1707 16.332 26.9997C16.332 29.8287 17.4558 32.5418 19.4562 34.5421C21.4566 36.5425 24.1697 37.6663 26.9987 37.6663C29.8277 37.6663 32.5408 36.5425 34.5412 34.5421C36.5416 32.5418 37.6654 29.8287 37.6654 26.9997C37.6654 24.1707 36.5416 21.4576 34.5412 19.4572C32.5408 17.4568 29.8277 16.333 26.9987 16.333ZM26.9987 21.6663C28.4132 21.6663 29.7697 22.2282 30.7699 23.2284C31.7701 24.2286 32.332 25.5852 32.332 26.9997C32.332 28.4142 31.7701 29.7707 30.7699 30.7709C29.7697 31.7711 28.4132 32.333 26.9987 32.333C25.5842 32.333 24.2277 31.7711 23.2275 30.7709C22.2273 29.7707 21.6654 28.4142 21.6654 26.9997C21.6654 25.5852 22.2273 24.2286 23.2275 23.2284C24.2277 22.2282 25.5842 21.6663 26.9987 21.6663ZM3.06803 23.7597C3.41825 23.768 3.76341 23.8452 4.08377 23.987C4.40414 24.1287 4.69343 24.3322 4.93513 24.5858C5.17683 24.8393 5.3662 25.1381 5.49241 25.4649C5.61862 25.7917 5.6792 26.1401 5.6707 26.4903L5.66536 26.9997C5.66536 27.1703 5.66536 27.341 5.6707 27.509C5.68732 28.2163 5.42231 28.9011 4.93396 29.413C4.44562 29.9248 3.77394 30.2217 3.0667 30.2383C2.35945 30.255 1.67457 29.99 1.16273 29.5016C0.650876 29.0133 0.353985 28.3416 0.337365 27.6343L0.332031 26.9997C0.332031 26.7863 0.332031 26.573 0.340031 26.365C0.347994 26.0148 0.424883 25.6696 0.566305 25.3491C0.707727 25.0286 0.91091 24.7391 1.16425 24.4971C1.41758 24.2552 1.71611 24.0655 2.04277 23.939C2.36943 23.8125 2.71782 23.7515 3.06803 23.7597ZM50.9294 23.7597C51.2796 23.7515 51.628 23.8125 51.9546 23.939C52.2813 24.0655 52.5798 24.2552 52.8332 24.4971C53.0865 24.7391 53.2897 25.0286 53.4311 25.3491C53.5725 25.6696 53.6494 26.0148 53.6574 26.365L53.6654 26.9997L53.6574 27.6343C53.6491 27.9845 53.572 28.3297 53.4304 28.6501C53.2888 28.9704 53.0854 29.2598 52.832 29.5016C52.5786 29.7434 52.28 29.9329 51.9533 30.0593C51.6266 30.1857 51.2782 30.2466 50.928 30.2383C50.5778 30.2301 50.2327 30.153 49.9123 30.0114C49.5919 29.8698 49.3026 29.6664 49.0608 29.413C48.819 29.1595 48.6294 28.861 48.503 28.5343C48.3766 28.2076 48.3158 27.8592 48.324 27.509L48.332 26.9997L48.3267 26.4903C48.3182 26.1401 48.3788 25.7917 48.505 25.4649C48.6312 25.1381 48.8206 24.8393 49.0623 24.5858C49.304 24.3322 49.5933 24.1287 49.9136 23.987C50.234 23.8452 50.5791 23.768 50.9294 23.7597ZM49.772 13.117C49.9907 13.477 50.204 13.845 50.4067 14.2157C50.5748 14.523 50.6807 14.8604 50.7184 15.2086C50.7561 15.5568 50.7249 15.9091 50.6264 16.2452C50.528 16.5814 50.3643 16.8948 50.1447 17.1677C49.9252 17.4406 49.654 17.6676 49.3467 17.8357C48.7261 18.1752 47.996 18.2542 47.3172 18.0554C46.6383 17.8566 46.0662 17.3963 45.7267 16.7757C45.5648 16.4784 45.3959 16.1849 45.22 15.8957C45.0335 15.5967 44.908 15.2637 44.8509 14.916C44.7938 14.5682 44.8062 14.2126 44.8874 13.8697C44.9686 13.5268 45.1169 13.2034 45.3238 12.9181C45.5308 12.6329 45.7922 12.3915 46.093 12.2078C46.3938 12.0242 46.728 11.9021 47.0762 11.8484C47.4245 11.7947 47.78 11.8106 48.1221 11.8952C48.4642 11.9797 48.7862 12.1312 49.0694 12.3409C49.3526 12.5507 49.5914 12.8144 49.772 13.117ZM7.89203 12.2317C8.19098 12.4142 8.45102 12.6539 8.65731 12.937C8.86361 13.2201 9.0121 13.5411 9.09432 13.8816C9.17653 14.2221 9.19086 14.5755 9.13647 14.9215C9.08209 15.2675 8.96006 15.5995 8.77736 15.8983C8.60136 16.1863 8.4307 16.4797 8.2707 16.7783C7.93087 17.3989 7.35842 17.8591 6.67929 18.0577C6.00016 18.2562 5.26997 18.1768 4.64936 17.837C4.02876 17.4972 3.56857 16.9247 3.37003 16.2456C3.17149 15.5665 3.25087 14.8363 3.5907 14.2157C3.79336 13.8423 4.0067 13.477 4.22536 13.117C4.40794 12.8181 4.64762 12.558 4.93072 12.3517C5.21381 12.1454 5.53478 11.9969 5.87529 11.9147C6.21579 11.8325 6.56915 11.8182 6.91519 11.8726C7.26123 11.9269 7.59316 12.049 7.89203 12.2317ZM39.7827 3.59167C40.156 3.79434 40.5214 4.00767 40.8814 4.22634C41.485 4.59517 41.9174 5.18868 42.0834 5.87632C42.2495 6.56395 42.1355 7.28938 41.7667 7.89301C41.3979 8.49664 40.8044 8.92903 40.1167 9.09507C39.4291 9.2611 38.7037 9.14717 38.1 8.77834C37.8108 8.60248 37.5174 8.43354 37.22 8.27168C36.5994 7.93184 36.1392 7.3594 35.9407 6.68026C35.7422 6.00113 35.8215 5.27095 36.1614 4.65034C36.5012 4.02973 37.0736 3.56954 37.7528 3.37101C38.4319 3.17247 39.1621 3.25184 39.7827 3.59167ZM17.836 4.65034C18.0044 4.95776 18.1104 5.29534 18.1482 5.64378C18.1859 5.99222 18.1546 6.34468 18.056 6.68102C17.9575 7.01735 17.7936 7.33095 17.5737 7.60389C17.3538 7.87683 17.0823 8.10375 16.7747 8.27168C16.4774 8.43355 16.184 8.60248 15.8947 8.77834C15.2919 9.12573 14.5771 9.22375 13.903 9.05147C13.2289 8.8792 12.6488 8.45029 12.2866 7.85627C11.9243 7.26225 11.8086 6.55016 11.964 5.87199C12.1195 5.19381 12.5339 4.60325 13.1187 4.22634C13.4787 4.00767 13.8467 3.79434 14.2174 3.59167C14.8377 3.25237 15.5673 3.17328 16.2459 3.37181C16.9245 3.57033 17.4964 4.03021 17.836 4.65034ZM27.6334 0.341008C28.3406 0.357628 29.0123 0.654519 29.5006 1.16637C29.989 1.67822 30.254 2.3631 30.2374 3.07034C30.2207 3.77759 29.9239 4.44926 29.412 4.9376C28.9002 5.42595 28.2153 5.69096 27.508 5.67434L26.9987 5.66634L26.4894 5.67167C25.7821 5.68829 25.0972 5.42328 24.5854 4.93494C24.0735 4.44659 23.7767 3.77492 23.76 3.06767C23.7434 2.36043 24.0084 1.67555 24.4968 1.1637C24.9851 0.651853 25.6568 0.354962 26.364 0.338341L26.9987 0.333008L27.6334 0.341008Z" fill="#242128"></path>
  </symbol>
  <symbol fill="none" xmlns="http://www.w3.org/2000/svg" viewBox="0 0 64 64" id="poll">
    <path d="M55.9987 8C57.4715 8 58.6654 9.19392 58.6654 10.6667V48C58.6654 49.4728 57.4715 50.6667 55.9987 50.6667H17.212L5.33203 60V10.6667C5.33203 9.19392 6.52595 8 7.9987 8H55.9987ZM53.332 13.3333H10.6654V49.0267L15.3676 45.3333H53.332V13.3333ZM34.6654 18.6667V40H29.332V18.6667H34.6654ZM45.332 24V40H39.9987V24H45.332ZM23.9987 29.3333V40H18.6654V29.3333H23.9987Z" fill="#242128"></path>
  </symbol>
  <symbol fill="none" xmlns="http://www.w3.org/2000/svg" viewBox="0 0 60 54" id="post">
    <path d="M6.00131 54.0003C4.53464 54.0003 3.27864 53.4777 2.23331 52.4323C1.18797 51.387 0.666195 50.1319 0.667973 48.667V16.667C0.667973 15.2003 1.19064 13.9443 2.23597 12.899C3.28131 11.8537 4.53642 11.3319 6.00131 11.3337H14.4013L19.3346 6.00033H35.3346V11.3337H21.668L16.8013 16.667H6.00131V48.667H48.668V24.667H54.0013V48.667C54.0013 50.1337 53.4786 51.3897 52.4333 52.435C51.388 53.4803 50.1329 54.0021 48.668 54.0003H6.00131ZM48.668 16.667V11.3337H43.3346V6.00033H48.668V0.666992H54.0013V6.00033H59.3346V11.3337H54.0013V16.667H48.668ZM27.3346 44.667C30.668 44.667 33.5018 43.4999 35.836 41.1657C38.1702 38.8314 39.3364 35.9985 39.3346 32.667C39.3346 29.3337 38.1675 26.4999 35.8333 24.1657C33.4991 21.8314 30.6662 20.6652 27.3346 20.667C24.0013 20.667 21.1675 21.8341 18.8333 24.1683C16.4991 26.5025 15.3329 29.3354 15.3346 32.667C15.3346 36.0003 16.5018 38.8341 18.836 41.1683C21.1702 43.5025 24.0031 44.6688 27.3346 44.667ZM27.3346 39.3337C25.468 39.3337 23.8902 38.6892 22.6013 37.4003C21.3124 36.1114 20.668 34.5337 20.668 32.667C20.668 30.8003 21.3124 29.2225 22.6013 27.9337C23.8902 26.6448 25.468 26.0003 27.3346 26.0003C29.2013 26.0003 30.7791 26.6448 32.068 27.9337C33.3569 29.2225 34.0013 30.8003 34.0013 32.667C34.0013 34.5337 33.3569 36.1114 32.068 37.4003C30.7791 38.6892 29.2013 39.3337 27.3346 39.3337Z" fill="#242128"></path>
  </symbol>
  <symbol xmlns="http://www.w3.org/2000/svg" viewBox="0 0 51 51" id="reels">
    <path d="M14.5769 0.333008H36.0897C40.0928 0.333008 43.735 1.96582 46.3774 4.58822C49.024 7.21474 50.6667 10.8391 50.6667 14.8222V36.5146C50.6667 40.4895 49.024 44.1097 46.3857 46.7362L46.3774 46.7445C43.7308 49.371 40.0886 50.9997 36.0939 50.9997H14.5769C10.5697 50.9997 6.92342 49.3669 4.28099 46.7445L4.18143 46.6331C1.60122 44.019 0 40.44 0 36.5105V14.8222C0 10.835 1.63856 7.21474 4.28099 4.58822C6.92342 1.9617 10.5656 0.333008 14.5769 0.333008ZM37.9606 13.1234L37.9896 13.1687H46.9498C46.5889 10.8267 45.4648 8.72385 43.847 7.11165C41.8558 5.13249 39.1097 3.90375 36.0897 3.90375H32.4102L37.9606 13.1234ZM33.8165 13.1687L28.2371 3.90375H15.9998L21.6455 13.1687H33.8165ZM17.4683 13.1687L12.0092 4.20475C10.0139 4.68305 8.22597 5.70974 6.81972 7.11165C5.2019 8.71973 4.08187 10.8267 3.71683 13.1687H17.4683ZM47.0743 16.7395H3.59238V36.5146C3.59238 39.471 4.79122 42.1635 6.72845 44.1344L6.81972 44.221C8.81087 46.2002 11.5612 47.4331 14.5769 47.4331H36.0897C39.1097 47.4331 41.8558 46.2043 43.8428 44.2293L43.8511 44.221C45.8381 42.246 47.0743 39.5164 47.0743 36.5146V16.7395ZM21.1353 22.9903L32.2651 30.1854C32.4434 30.3009 32.6052 30.4493 32.7338 30.6308C33.2399 31.3606 33.0532 32.3625 32.319 32.8656L21.2349 39.3679C20.9569 39.5947 20.6002 39.7308 20.2061 39.7308C19.3101 39.7308 18.5841 39.0092 18.5841 38.1186V24.3098H18.5924C18.5924 23.9923 18.6878 23.6707 18.8828 23.3903C19.3972 22.6605 20.4052 22.4832 21.1353 22.9903Z" fill="#242128"></path>
  </symbol>
  <symbol fill="none" xmlns="http://www.w3.org/2000/svg" viewBox="0 0 54 32" id="video">
    <path d="M52.412 3.06667C52.0066 2.83262 51.5468 2.7094 51.0787 2.7094C50.6106 2.7094 50.1508 2.83262 49.7454 3.06667L40.332 7.70667C40.2561 5.63619 39.3798 3.67593 37.8876 2.2385C36.3955 0.801079 34.4039 -0.0013914 32.332 1.81108e-06H8.33203C6.2103 1.81108e-06 4.17547 0.842857 2.67518 2.34315C1.17489 3.84344 0.332031 5.87827 0.332031 8V24C0.332031 26.1217 1.17489 28.1566 2.67518 29.6569C4.17547 31.1571 6.2103 32 8.33203 32H32.332C34.4039 32.0014 36.3955 31.1989 37.8876 29.7615C39.3798 28.3241 40.2561 26.3638 40.332 24.2933L49.8254 29.04C50.1888 29.2263 50.5903 29.3267 50.9987 29.3333C51.498 29.3349 51.9877 29.1963 52.412 28.9333C52.7963 28.6931 53.1131 28.359 53.3324 27.9624C53.5517 27.5658 53.6663 27.1199 53.6654 26.6667V5.33333C53.6663 4.88015 53.5517 4.43421 53.3324 4.03762C53.1131 3.64102 52.7963 3.30686 52.412 3.06667ZM34.9987 24C34.9987 24.7072 34.7177 25.3855 34.2177 25.8856C33.7176 26.3857 33.0393 26.6667 32.332 26.6667H8.33203C7.62479 26.6667 6.94651 26.3857 6.44641 25.8856C5.94632 25.3855 5.66536 24.7072 5.66536 24V8C5.66536 7.29276 5.94632 6.61448 6.44641 6.11438C6.94651 5.61429 7.62479 5.33333 8.33203 5.33333H32.332C33.0393 5.33333 33.7176 5.61429 34.2177 6.11438C34.7177 6.61448 34.9987 7.29276 34.9987 8V24ZM48.332 22.3467L40.332 18.3467V13.6533L48.332 9.65333V22.3467Z" fill="#242128"></path>
  </symbol>
</svg>